<svg width="100" height="100" viewBox="0 0 100 100" fill="none" xmlns="http://www.w3.org/2000/svg">
<path fill-rule="evenodd" clip-rule="evenodd" d="M100 50V53H99.9115C98.36 79.2175 76.607 100 50 100C26.5223 100 6.82399 83.8186 1.4493 62H14.8157C20.9198 74.4379 33.71 83 48.5 83C66.6422 83 81.7753 70.1168 85.2499 53H79H77.1212H66H63H33V54H33.0489C33.1825 55.3647 33.5891 56.7064 34.256 57.9749C35.0852 59.5521 36.3006 60.9852 37.8327 62.1924C39.3649 63.3995 41.1839 64.3571 43.1857 65.0104C45.1876 65.6637 47.3332 66 49.5 66C51.6668 66 53.8124 65.6637 55.8143 65.0104C57.8161 64.3571 59.6351 63.3995 61.1673 62.1924C62.3603 61.2524 63.3613 60.1754 64.1375 59H74.5775C69.6904 67.3326 60.0695 73 49 73C32.9837 73 20 61.1355 20 46.5C20 31.8645 32.9837 20 49 20C65.0163 20 78 31.8645 78 46.5C78 47.0034 77.9846 47.5035 77.9543 48H83H85.918H99.9607H100V50ZM48.5 8C66.9938 8 82.3608 21.3875 85.4387 39H98.7861C93.7747 16.6777 73.835 0 50 0C23.0556 0 1.08908 21.3129 0.0392761 48H0V50V53H0.0885162H11.7501H20V48H11.082C11.0276 47.1737 11 46.3401 11 45.5C11 24.7893 27.7893 8 48.5 8ZM66 47H65.9914C65.9273 45.135 65.5053 43.2948 64.744 41.5684C63.9148 39.6879 62.6994 37.9792 61.1673 36.5398C59.6351 35.1005 57.8161 33.9588 55.8143 33.1799C53.8124 32.4009 51.6668 32 49.5 32C47.3332 32 45.1876 32.4009 43.1857 33.1799C41.1839 33.9588 39.3649 35.1005 37.8327 36.5398C36.3006 37.9792 35.0852 39.6879 34.256 41.5684C33.4947 43.2948 33.0727 45.135 33.0086 47H33V48H66V47Z" fill="#3A89C9"/>
</svg>
